# xmcd CD database file
#
# Track frame offsets:
#	150
#	17337
#	45212
#	73852
#	98635
#	119465
#	155307
#	183515
#
# Disc length: 2756 seconds
#
# Revision: 0
# Processed by: cddbd v1.4PL0 Copyright (c) Steve Scherf et al.
# Submitted via: CDex 1.50beta10
#
DISCID=590ac208
DTITLE=Milt Jackson - Olinga
DYEAR=1974
DGENRE=Jazz
TTITLE0=Olinga
TTITLE1=Rerev
TTITLE2=The metal melter
TTITLE3=The steel bender
TTITLE4=Lost april
TTITLE5=I'm not so sure
TTITLE6=The metal melter (alt)
TTITLE7=The steel bender (alt)
EXTD=YEAR: 1974
EXTT0=
EXTT1=
EXTT2=
EXTT3=
EXTT4=
EXTT5=
EXTT6=
EXTT7=
PLAYORDER=
